<?xml version="1.0" encoding="utf-8"?>
<!-- Generator: Adobe Illustrator 16.0.0, SVG Export Plug-In . SVG Version: 6.00 Build 0)  -->
<!DOCTYPE svg PUBLIC "-//W3C//DTD SVG 1.1//EN" "http://www.w3.org/Graphics/SVG/1.1/DTD/svg11.dtd">
<svg version="1.1" id="Layer_1" xmlns="http://www.w3.org/2000/svg" xmlns:xlink="http://www.w3.org/1999/xlink" x="0px" y="0px"
	 width="27.312px" height="34.982px" viewBox="0 0 27.312 34.982" enable-background="new 0 0 27.312 34.982" xml:space="preserve">
<g>
	<path fill="#007DB6" d="M25.373,20.671l-0.019,0.003c1.233-2.053,1.958-4.446,1.958-7.019c0-7.543-6.115-13.656-13.656-13.656
		C6.113-0.001,0,6.112,0,13.655c0,2.57,0.725,4.966,1.957,7.019l-0.018-0.003c0.073,0.105,0.155,0.234,0.239,0.367
		c0.068,0.11,0.138,0.225,0.212,0.33c0.068,0.109,0.142,0.215,0.209,0.305c3.375,4.467,7.201,9.299,10.648,13.084l0.006-0.002
		c0.088,0.135,0.229,0.229,0.4,0.229s0.312-0.094,0.4-0.229l0.006,0.002c3.443-3.785,7.273-8.617,10.648-13.084
		c0.067-0.09,0.141-0.193,0.21-0.307c0.076-0.109,0.146-0.226,0.219-0.338C25.221,20.899,25.301,20.773,25.373,20.671z"/>
	<g>
		<circle fill="#FFFFFF" cx="13.656" cy="13.69" r="10.691"/>
	</g>
	<g>
		<path fill="#007DB6" d="M14.055,17.315c-0.031,0.139-0.061,0.26-0.08,0.367c-0.021,0.104-0.031,0.199-0.031,0.285
			c0,0.342,0.219,0.514,0.654,0.514c0.096,0,0.186-0.004,0.271-0.01c0.086-0.006,0.182-0.014,0.287-0.023l0.064,0.654
			c-0.361,0.182-0.719,0.318-1.062,0.416c-0.345,0.096-0.709,0.143-1.094,0.143c-0.51,0-0.885-0.121-1.125-0.367
			c-0.24-0.244-0.359-0.6-0.359-1.066c0-0.268,0.043-0.586,0.127-0.959l0.85-3.434c0.062-0.232,0.096-0.438,0.096-0.605
			c0-0.275-0.092-0.479-0.271-0.6c-0.182-0.123-0.469-0.184-0.861-0.184l0.145-0.623c0.244-0.129,0.545-0.248,0.902-0.359
			c0.354-0.109,0.729-0.168,1.125-0.168c0.447,0,0.787,0.104,1.021,0.312c0.234,0.209,0.354,0.535,0.354,0.98
			c0,0.268-0.037,0.557-0.111,0.863L14.055,17.315z M15.795,9.061c0,0.18-0.035,0.354-0.104,0.518
			c-0.068,0.166-0.166,0.309-0.287,0.424c-0.123,0.117-0.266,0.211-0.432,0.279c-0.164,0.068-0.346,0.104-0.535,0.104
			c-0.373,0-0.689-0.129-0.949-0.385c-0.262-0.256-0.391-0.568-0.391-0.939c0-0.373,0.133-0.689,0.396-0.951
			c0.268-0.26,0.59-0.395,0.977-0.395c0.369,0,0.686,0.135,0.939,0.395C15.668,8.372,15.795,8.688,15.795,9.061z"/>
	</g>
</g>
</svg>
