<?xml version="1.0" encoding="utf-8"?>
<!-- Generator: Adobe Illustrator 16.0.0, SVG Export Plug-In . SVG Version: 6.00 Build 0)  -->
<!DOCTYPE svg PUBLIC "-//W3C//DTD SVG 1.1//EN" "http://www.w3.org/Graphics/SVG/1.1/DTD/svg11.dtd">
<svg version="1.1" id="Layer_1" xmlns="http://www.w3.org/2000/svg" xmlns:xlink="http://www.w3.org/1999/xlink" x="0px" y="0px"
	 width="34.982px" height="27.312px" viewBox="0 0 34.982 27.312" enable-background="new 0 0 34.982 27.312" xml:space="preserve">
<g>
	<path fill="#007DB6" d="M14.311,25.373l-0.003-0.018c2.053,1.233,4.447,1.957,7.019,1.957c7.543,0,13.656-6.115,13.656-13.656
		C34.984,6.113,28.87,0,21.327,0c-2.57,0-4.966,0.725-7.019,1.957l0.003-0.018c-0.104,0.073-0.233,0.155-0.367,0.239
		c-0.109,0.068-0.224,0.138-0.33,0.212c-0.108,0.069-0.215,0.142-0.305,0.21C8.844,5.975,4.012,9.802,0.225,13.249l0.002,0.006
		C0.094,13.343,0,13.484,0,13.655s0.094,0.312,0.228,0.4l-0.002,0.006c3.786,3.443,8.618,7.273,13.084,10.648
		c0.09,0.068,0.194,0.142,0.307,0.211c0.109,0.076,0.227,0.146,0.339,0.218C14.084,25.222,14.21,25.3,14.311,25.373z"/>
	<g>
		<g>
			<circle fill="#FFFFFF" cx="21.294" cy="13.656" r="10.691"/>
		</g>
		<g>
			<path fill="#007DB6" d="M21.693,17.282c-0.031,0.139-0.061,0.26-0.08,0.367c-0.021,0.104-0.031,0.2-0.031,0.286
				c0,0.341,0.219,0.513,0.654,0.513c0.096,0,0.186-0.004,0.271-0.01c0.086-0.005,0.182-0.014,0.287-0.023l0.062,0.654
				c-0.359,0.182-0.717,0.319-1.061,0.416c-0.346,0.096-0.709,0.143-1.094,0.143c-0.512,0-0.887-0.121-1.125-0.366
				c-0.24-0.244-0.359-0.601-0.359-1.067c0-0.267,0.043-0.586,0.127-0.959l0.848-3.433c0.062-0.233,0.098-0.438,0.098-0.606
				c0-0.275-0.094-0.479-0.271-0.599c-0.182-0.123-0.469-0.185-0.863-0.185l0.146-0.623c0.244-0.129,0.545-0.248,0.902-0.358
				c0.354-0.11,0.729-0.168,1.125-0.168c0.445,0,0.785,0.104,1.02,0.312c0.234,0.209,0.354,0.535,0.354,0.981
				c0,0.267-0.037,0.556-0.111,0.862L21.693,17.282z M23.431,9.028c0,0.18-0.035,0.354-0.104,0.518
				c-0.068,0.166-0.166,0.309-0.287,0.425c-0.123,0.116-0.266,0.211-0.432,0.278c-0.164,0.068-0.346,0.104-0.535,0.104
				c-0.373,0-0.689-0.128-0.949-0.384c-0.262-0.257-0.391-0.569-0.391-0.94c0-0.373,0.133-0.689,0.396-0.951
				c0.268-0.26,0.59-0.394,0.977-0.394c0.369,0,0.686,0.134,0.939,0.394C23.306,8.339,23.431,8.655,23.431,9.028z"/>
		</g>
	</g>
</g>
</svg>
