<?xml version="1.0" encoding="utf-8"?>
<!-- Generator: Adobe Illustrator 16.0.0, SVG Export Plug-In . SVG Version: 6.00 Build 0)  -->
<!DOCTYPE svg PUBLIC "-//W3C//DTD SVG 1.1//EN" "http://www.w3.org/Graphics/SVG/1.1/DTD/svg11.dtd">
<svg version="1.1" id="Layer_1" xmlns="http://www.w3.org/2000/svg" xmlns:xlink="http://www.w3.org/1999/xlink" x="0px" y="0px"
	 width="34.984px" height="27.312px" viewBox="0 0 34.984 27.312" enable-background="new 0 0 34.984 27.312" xml:space="preserve">
<g>
	<path fill="#007DB6" d="M20.671,1.939l0.004,0.019C18.622,0.724,16.227,0,13.656,0C6.113,0,0,6.115,0,13.656
		c0,7.543,6.113,13.656,13.656,13.656c2.57,0,4.966-0.725,7.019-1.957l-0.004,0.018c0.105-0.073,0.234-0.155,0.367-0.239
		c0.111-0.068,0.226-0.138,0.33-0.212c0.109-0.068,0.215-0.142,0.305-0.209c4.468-3.375,9.3-7.201,13.084-10.648l-0.002-0.006
		c0.136-0.088,0.229-0.229,0.229-0.4s-0.094-0.312-0.229-0.4l0.002-0.006C30.972,9.808,26.14,5.978,21.673,2.603
		c-0.09-0.067-0.192-0.141-0.307-0.21c-0.109-0.076-0.225-0.146-0.338-0.219C20.899,2.091,20.774,2.011,20.671,1.939z"/>
	<g>
		<circle fill="#FFFFFF" cx="13.69" cy="13.656" r="10.691"/>
	</g>
	<g>
		<path fill="#007DB6" d="M14.089,17.282c-0.03,0.139-0.06,0.26-0.08,0.367c-0.021,0.104-0.03,0.2-0.03,0.286
			c0,0.341,0.219,0.513,0.653,0.513c0.097,0,0.187-0.004,0.271-0.01c0.086-0.005,0.182-0.014,0.287-0.023l0.063,0.654
			c-0.36,0.182-0.718,0.319-1.062,0.416c-0.345,0.096-0.709,0.143-1.094,0.143c-0.511,0-0.886-0.121-1.125-0.366
			c-0.24-0.244-0.359-0.601-0.359-1.067c0-0.267,0.043-0.586,0.127-0.959l0.849-3.433c0.062-0.233,0.097-0.438,0.097-0.606
			c0-0.275-0.093-0.479-0.271-0.599c-0.182-0.123-0.469-0.185-0.862-0.185l0.146-0.623c0.244-0.129,0.545-0.248,0.902-0.358
			c0.354-0.11,0.729-0.168,1.125-0.168c0.446,0,0.786,0.104,1.021,0.312c0.234,0.209,0.354,0.535,0.354,0.981
			c0,0.267-0.037,0.556-0.111,0.862L14.089,17.282z M15.828,9.028c0,0.18-0.035,0.354-0.104,0.518
			c-0.068,0.166-0.166,0.309-0.287,0.425c-0.123,0.116-0.267,0.211-0.433,0.278c-0.164,0.068-0.345,0.104-0.535,0.104
			c-0.372,0-0.688-0.128-0.948-0.384C13.259,9.713,13.13,9.4,13.13,9.029c0-0.373,0.134-0.689,0.397-0.951
			c0.267-0.26,0.59-0.394,0.976-0.394c0.37,0,0.687,0.134,0.94,0.394C15.701,8.339,15.828,8.655,15.828,9.028z"/>
	</g>
</g>
</svg>
