<?xml version="1.0" encoding="utf-8"?>
<!-- Generator: Adobe Illustrator 16.0.0, SVG Export Plug-In . SVG Version: 6.00 Build 0)  -->
<!DOCTYPE svg PUBLIC "-//W3C//DTD SVG 1.1//EN" "http://www.w3.org/Graphics/SVG/1.1/DTD/svg11.dtd">
<svg version="1.1" id="Layer_1" xmlns="http://www.w3.org/2000/svg" xmlns:xlink="http://www.w3.org/1999/xlink" x="0px" y="0px"
	 width="27.312px" height="34.984px" viewBox="0 0 27.312 34.984" enable-background="new 0 0 27.312 34.984" xml:space="preserve">
<path fill="#FFFFFF" d="M25.758,15.025c-0.127-0.243-0.261-0.482-0.401-0.717l0.018,0.003c-0.074-0.105-0.156-0.234-0.24-0.367
	c-0.067-0.11-0.137-0.224-0.211-0.33c-0.069-0.109-0.143-0.215-0.209-0.305C21.339,8.843,17.511,4.01,14.064,0.225l-0.006,0.002
	c-0.088-0.135-0.229-0.229-0.4-0.229s-0.312,0.094-0.4,0.229L13.25,0.225C9.806,4.01,5.976,8.843,2.601,13.309
	c-0.068,0.09-0.142,0.193-0.211,0.307c-0.076,0.109-0.146,0.226-0.218,0.338c-0.083,0.128-0.161,0.254-0.233,0.357l0.018-0.003"/>
</svg>
