<?xml version="1.0" encoding="utf-8"?>
<!-- Generator: Adobe Illustrator 16.0.0, SVG Export Plug-In . SVG Version: 6.00 Build 0)  -->
<!DOCTYPE svg PUBLIC "-//W3C//DTD SVG 1.1//EN" "http://www.w3.org/Graphics/SVG/1.1/DTD/svg11.dtd">
<svg version="1.1" id="Layer_1" xmlns="http://www.w3.org/2000/svg" xmlns:xlink="http://www.w3.org/1999/xlink" x="0px" y="0px"
	 width="27.312px" height="34.984px" viewBox="0 -0.001 27.312 34.984" enable-background="new 0 -0.001 27.312 34.984"
	 xml:space="preserve">
<path fill="#007DB6" d="M1.939,14.311l0.018-0.003C0.722,16.361,0,18.755,0,21.327c0,7.543,6.115,13.656,13.656,13.656
	c7.543,0,13.657-6.113,13.657-13.656c0-2.57-0.725-4.966-1.957-7.019l0.018,0.003c-0.074-0.105-0.156-0.234-0.24-0.367
	c-0.068-0.11-0.137-0.224-0.211-0.33c-0.07-0.109-0.143-0.215-0.209-0.305c-3.375-4.466-7.203-9.298-10.65-13.084l-0.006,0.002
	c-0.088-0.134-0.229-0.228-0.4-0.228s-0.312,0.094-0.4,0.228L13.25,0.225C9.806,4.011,5.976,8.843,2.601,13.309
	c-0.068,0.09-0.141,0.194-0.211,0.307c-0.076,0.109-0.145,0.226-0.217,0.338C2.09,14.082,2.011,14.208,1.939,14.311z"/>
<g>
	<g>
		<circle fill="#FFFFFF" cx="13.656" cy="21.292" r="10.691"/>
	</g>
	<g>
		<path fill="#007DB6" d="M14.055,24.918c-0.031,0.139-0.06,0.26-0.08,0.367c-0.021,0.104-0.031,0.2-0.031,0.286
			c0,0.341,0.219,0.513,0.654,0.513c0.096,0,0.186-0.004,0.271-0.01c0.086-0.005,0.182-0.013,0.287-0.023l0.064,0.654
			c-0.361,0.182-0.718,0.319-1.062,0.416c-0.345,0.096-0.709,0.143-1.094,0.143c-0.51,0-0.885-0.121-1.125-0.367
			c-0.24-0.244-0.359-0.6-0.359-1.067c0-0.267,0.043-0.586,0.127-0.959l0.849-3.433c0.062-0.233,0.096-0.438,0.096-0.606
			c0-0.275-0.092-0.478-0.271-0.599c-0.182-0.123-0.469-0.184-0.862-0.184l0.145-0.623c0.244-0.129,0.545-0.248,0.902-0.359
			c0.354-0.11,0.729-0.168,1.125-0.168c0.447,0,0.787,0.104,1.021,0.312c0.234,0.209,0.353,0.535,0.353,0.981
			c0,0.267-0.037,0.556-0.111,0.863L14.055,24.918z M15.795,16.664c0,0.18-0.035,0.354-0.104,0.518
			c-0.068,0.166-0.166,0.308-0.287,0.424c-0.123,0.117-0.266,0.211-0.432,0.279c-0.164,0.068-0.345,0.104-0.535,0.104
			c-0.373,0-0.689-0.128-0.949-0.384c-0.262-0.256-0.391-0.569-0.391-0.94c0-0.373,0.133-0.689,0.397-0.951
			c0.267-0.26,0.59-0.394,0.976-0.394c0.37,0,0.686,0.134,0.94,0.394C15.668,15.974,15.795,16.291,15.795,16.664z"/>
	</g>
</g>
</svg>
